PathFileType	4	(X/Y/Z)	/Users/itak/Documents/Research/Walk-IL/dataset/trc/00232_00009.trc
DataRate	CameraRate	NumFrames	NumMarkers	Units	OrigDataRate	OrigDataStartFrame	OrigNumFrames
100.000000	100.000000	4	53	mm	100.000000	426	852
Frame#	Time	RPSI			LPSI			L3			STRN			T10			C7			CLAV			RBAK			LBAK			LSHO			LUPA			LAEL			LAOL			LWTS			LWPS			LFRA			LIFD			LHPS			LHTS			RSHO			RUPA			RAEL			RAOL			RWTS			RWPS			RFRA			RIFD			RHTS			RHPS			RBHD			LFHD			RFHD			LBHD			LHIP			RHIP			RASI			LASI			LKNE			LTHI			LANK			LTIP			LTOE			LMT1			LMT5			LHEE			RKNE			RTHI			RANK			RTIP			RTOE			RMT1			RMT5			RHEE			
		X1	Y1	Z1	X2	Y2	Z2	X3	Y3	Z3	X4	Y4	Z4	X5	Y5	Z5	X6	Y6	Z6	X7	Y7	Z7	X8	Y8	Z8	X9	Y9	Z9	X10	Y10	Z10	X11	Y11	Z11	X12	Y12	Z12	X13	Y13	Z13	X14	Y14	Z14	X15	Y15	Z15	X16	Y16	Z16	X17	Y17	Z17	X18	Y18	Z18	X19	Y19	Z19	X20	Y20	Z20	X21	Y21	Z21	X22	Y22	Z22	X23	Y23	Z23	X24	Y24	Z24	X25	Y25	Z25	X26	Y26	Z26	X27	Y27	Z27	X28	Y28	Z28	X29	Y29	Z29	X30	Y30	Z30	X31	Y31	Z31	X32	Y32	Z32	X33	Y33	Z33	X34	Y34	Z34	X35	Y35	Z35	X36	Y36	Z36	X37	Y37	Z37	X38	Y38	Z38	X39	Y39	Z39	X40	Y40	Z40	X41	Y41	Z41	X42	Y42	Z42	X43	Y43	Z43	X44	Y44	Z44	X45	Y45	Z45	X46	Y46	Z46	X47	Y47	Z47	X48	Y48	Z48	X49	Y49	Z49	X50	Y50	Z50	X51	Y51	Z51	X52	Y52	Z52	X53	Y53	Z53	

427	4.26	569.5499877929688	1021.419799804688	-420.3005981445312	513.4812622070312	1023.720886230469	-313.8795471191406	539.7492065429688	1113.231201171875	-350.177978515625	316.5310974121094	1301.76025390625	-460.3306274414062	548.2406616210938	1240.553833007812	-351.9169616699219	490.43896484375	1501.995849609375	-374.1891174316406	340.9673461914062	1419.482421875	-449.4934387207031	589.9380493164062	1363.71923828125	-409.1341857910156	460.2035217285156	1463.879150390625	-265.661376953125	355.8752746582031	1464.503173828125	-257.2244873046875	338.5642395019531	1347.126098632812	-177.5726623535156	282.942626953125	1142.193481445312	-169.4353790283203	364.5921630859375	1111.726684570312	-172.0422973632812	192.9962921142578	948.6859130859375	-309.2706298828125	160.3994750976562	923.2728271484375	-234.7681427001953	233.6053009033203	1045.466430664062	-188.7146148681641	134.1242065429688	765.8513793945312	-345.9291381835938	127.8070068359375	845.2000732421875	-265.7832641601562	127.4759902954102	863.845703125	-331.8229370117188	510.9250183105469	1464.829223632812	-551.9530639648438	556.8406982421875	1402.040161132812	-606.1244506835938	593.447021484375	1124.595825195312	-647.67626953125	584.2465209960938	1110.879028320312	-552.5823364257812	447.8438720703125	916.5614013671875	-689.28369140625	525.7306518554688	902.7813110351562	-722.6646118164062	575.4917602539062	1058.847900390625	-676.2559204101562	437.2095642089844	724.2403564453125	-704.9468994140625	416.89404296875	799.8021240234375	-732.7686157226562	487.9363708496094	798.7476806640625	-750.9426879882812	465.4767456054688	1662.08740234375	-451.6604919433594	243.8316497802734	1691.471557617188	-414.6355590820312	270.7147216796875	1693.213745117188	-510.9131164550781	386.1893310546875	1662.8564453125	-335.8057250976562	356.2710876464844	962.9876098632812	-239.5857696533203	530.3793334960938	993.1015625	-561.7238159179688	429.0648193359375	1038.376953125	-571.21875	292.8348083496094	1014.441833496094	-326.8257141113281	318.9466247558594	492.0128173828125	-388.3882141113281	318.1737670898438	629.01806640625	-332.1648254394531	441.8076171875	30.88635444641113	-428.4122924804688	376.58984375	264.2943420410156	-400.8667907714844	259.2299499511719	39.52325820922852	-558.4227905273438	337.9620056152344	32.57899475097656	-571.5056762695312	315.6778564453125	36.21823883056641	-458.8681030273438	516.5999145507812	36.89723587036133	-457.9988708496094	405.8216857910156	519.7232666015625	-648.0037231445312	451.6801147460938	785.8652954101562	-628.128662109375	688.1842651367188	137.1292114257812	-519.8229370117188	435.3498840332031	408.2413940429688	-629.2509765625	514.0258178710938	55.74176406860352	-602.2752075195312	529.5134887695312	65.54425811767578	-535.6397094726562	627.730224609375	89.82445526123047	-600.0255737304688	698.4166259765625	158.1451568603516	-438.8974609375	
428	4.27	565.3075561523438	1022.013793945312	-424.3130493164062	510.7798767089844	1024.222900390625	-317.0146484375	536.2406005859375	1113.492919921875	-353.3783264160156	311.6000671386719	1302.06884765625	-460.9695434570312	544.3623657226562	1240.955932617188	-354.885986328125	486.4336547851562	1502.345581054688	-376.7403564453125	336.2918090820312	1419.77294921875	-450.4765930175781	585.5103149414062	1363.946411132812	-412.4504699707031	457.1914367675781	1464.425903320312	-267.8373413085938	352.9175415039062	1465.083618164062	-258.5448303222656	335.8565979003906	1347.778442382812	-178.840576171875	278.6236267089844	1143.2392578125	-171.0661010742188	360.0279541015625	1112.148681640625	-173.8380889892578	186.8780975341797	951.2664184570312	-311.8063659667969	154.0408020019531	925.7606201171875	-237.4866638183594	228.4204559326172	1047.020141601562	-190.7935943603516	126.2375717163086	769.2373657226562	-349.494873046875	120.686164855957	848.2021484375	-268.9388427734375	120.5200347900391	867.2202758789062	-334.8646850585938	505.2396240234375	1464.9443359375	-554.6272583007812	550.662353515625	1402.112548828125	-609.1370239257812	586.9695434570312	1124.728271484375	-650.8697509765625	578.2893676757812	1110.900146484375	-555.7086181640625	441.0263061523438	916.5961303710938	-691.6110229492188	518.822021484375	902.865478515625	-725.4083862304688	568.784912109375	1058.915771484375	-679.2554321289062	429.79296875	724.3314208984375	-707.4398193359375	409.8600158691406	799.915771484375	-735.0015258789062	480.8369140625	798.8462524414062	-753.5179443359375	460.7633972167969	1662.367553710938	-454.2318115234375	239.4963684082031	1691.9375	-415.0650939941406	265.439208984375	1693.4892578125	-511.6087341308594	382.6179809570312	1663.38720703125	-337.5753173828125	354.9420471191406	963.0369873046875	-240.1741485595703	523.7409057617188	993.7738647460938	-565.1098022460938	422.3432006835938	1038.895751953125	-572.7879638671875	289.9039306640625	1014.497375488281	-326.39599609375	318.52783203125	491.6912536621094	-387.6254272460938	317.6708068847656	628.8245239257812	-331.7471313476562	441.887451171875	30.86765289306641	-428.3598937988281	376.4528503417969	264.1668395996094	-400.5645751953125	259.2275085449219	39.49814224243164	-558.3622436523438	337.9572143554688	32.59202575683594	-571.51318359375	315.654541015625	36.14169311523438	-458.7004089355469	516.70068359375	37.02970123291016	-457.9213562011719	394.3594970703125	521.17529296875	-649.6976928710938	443.0609436035156	786.96923828125	-630.9811401367188	672.3745727539062	130.1377716064453	-539.8865356445312	422.7861633300781	409.1355285644531	-633.9746704101562	493.8186340332031	55.69880676269531	-619.7153930664062	511.5282287597656	62.72837829589844	-553.2395629882812	608.3377075195312	87.03330993652344	-619.813232421875	685.5576171875	147.9543762207031	-458.5953369140625	
429	4.28	561.0490112304688	1022.621032714844	-428.3306274414062	508.0953063964844	1024.736572265625	-320.1680603027344	532.7451171875	1113.74951171875	-356.5750122070312	306.6116027832031	1302.349365234375	-461.5440979003906	540.4927368164062	1241.34765625	-357.8955688476562	482.3858337402344	1502.678344726562	-379.2681884765625	331.5727844238281	1420.034301757812	-451.392333984375	581.049072265625	1364.181762695312	-415.7906799316406	454.1959838867188	1464.934448242188	-269.9891357421875	349.9924926757812	1465.599609375	-259.7986755371094	333.2344055175781	1348.363647460938	-180.0576934814453	274.4735412597656	1144.210083007812	-172.5982666015625	355.6334533691406	1112.521362304688	-175.5894317626953	180.9301605224609	953.75927734375	-314.162109375	147.9086608886719	928.1409912109375	-239.99267578125	223.4330596923828	1048.484619140625	-192.7315368652344	118.5080184936523	772.5670776367188	-352.8598937988281	113.7945098876953	851.0989990234375	-271.8657531738281	113.7063903808594	870.5116577148438	-337.6743774414062	499.4461059570312	1465.065307617188	-557.2732543945312	544.3544311523438	1402.195068359375	-612.1334228515625	580.40185546875	1124.893676757812	-654.10400390625	572.3527221679688	1110.959716796875	-558.8649291992188	434.1730651855469	916.5712890625	-693.7288818359375	511.7963562011719	902.91796875	-728.0579833984375	561.9644165039062	1058.991333007812	-682.2476806640625	422.2629699707031	724.3536987304688	-709.6948852539062	402.802734375	799.9248046875	-736.9236450195312	473.6613159179688	798.90478515625	-755.9187622070312	456.017578125	1662.610961914062	-456.7049560546875	235.1493835449219	1692.411010742188	-415.3958435058594	260.1586303710938	1693.79345703125	-512.1976318359375	379.0275268554688	1663.873901367188	-339.2596435546875	353.68212890625	963.0773315429688	-240.7910308837891	517.06591796875	994.4232788085938	-568.4501953125	415.6219482421875	1039.394409179688	-574.336669921875	287.0296325683594	1014.527587890625	-325.9619445800781	318.0623779296875	491.3845825195312	-386.9224853515625	317.1510009765625	628.6401977539062	-331.369140625	441.9903564453125	30.85174751281738	-428.2850036621094	376.2868347167969	264.0435791015625	-400.27294921875	259.2290649414062	39.47056198120117	-558.313720703125	337.9537048339844	32.60321044921875	-571.5274658203125	315.6152648925781	36.07876586914062	-458.539794921875	516.8046875	37.16873550415039	-457.8263854980469	383.0156555175781	522.532470703125	-650.872314453125	434.466552734375	787.9598999023438	-633.5964965820312	655.4055786132812	123.1084594726562	-559.8203125	410.0844421386719	409.9276428222656	-638.1783447265625	472.4049377441406	55.77693557739258	-636.0348510742188	492.4753723144531	60.09277725219727	-569.95361328125	587.64111328125	84.21506500244141	-638.94482421875	671.691162109375	137.7810363769531	-478.4281005859375	
430	4.29	556.765869140625	1023.232055664062	-432.3378295898438	505.4175415039062	1025.256591796875	-323.3319396972656	529.26708984375	1114.008666992188	-359.7644958496094	301.5625915527344	1302.601928710938	-462.0592346191406	536.6406860351562	1241.728637695312	-360.9502563476562	478.29345703125	1502.994750976562	-381.7764282226562	326.8058166503906	1420.267456054688	-452.2506103515625	576.5507202148438	1364.4287109375	-419.1610107421875	451.2150268554688	1465.404174804688	-272.1218566894531	347.0940246582031	1466.05615234375	-260.9941711425781	330.6831665039062	1348.889404296875	-181.2333526611328	270.4923400878906	1145.109130859375	-174.0365753173828	351.4163208007812	1112.847778320312	-177.2971649169922	175.1528472900391	956.1567993164062	-316.3410949707031	142.0084686279297	930.4139404296875	-242.2853393554688	218.6557006835938	1049.863891601562	-194.5248260498047	110.9602279663086	775.81103515625	-355.9998168945312	107.1439895629883	853.8843383789062	-274.5532531738281	107.0379867553711	873.7019653320312	-340.2451171875	493.5390930175781	1465.194458007812	-559.8933715820312	537.91064453125	1402.2900390625	-615.1170043945312	573.743896484375	1125.088500976562	-657.3651123046875	566.4229125976562	1111.063720703125	-562.0374145507812	427.2961120605469	916.5018310546875	-695.6517333984375	504.6642761230469	902.9419555664062	-730.6068115234375	555.03857421875	1059.075805664062	-685.2237548828125	414.6315307617188	724.3170166015625	-711.7171630859375	395.7358093261719	799.846923828125	-738.5521240234375	466.418701171875	798.9238891601562	-758.1430053710938	451.2327575683594	1662.823120117188	-459.0817260742188	230.7807922363281	1692.87841796875	-415.6324462890625	254.8621978759766	1694.11376953125	-512.6824951171875	375.4088745117188	1664.314819335938	-340.8613891601562	352.4617614746094	963.1129150390625	-241.4427185058594	510.380126953125	995.0528564453125	-571.7400512695312	408.9031066894531	1039.8740234375	-575.8605346679688	284.2181091308594	1014.531860351562	-325.5257568359375	317.5342102050781	491.0924377441406	-386.2895812988281	316.5858764648438	628.4609375	-331.04736328125	442.1044921875	30.83534049987793	-428.2054138183594	376.0926208496094	263.9236755371094	-399.9932250976562	259.2310180664062	39.43679809570312	-558.278564453125	337.9493713378906	32.6141471862793	-571.5497436523438	315.5663146972656	36.02648544311523	-458.3831481933594	516.8959350585938	37.28776931762695	-457.7466125488281	371.801513671875	523.8043212890625	-651.5862426757812	425.8699035644531	788.8377685546875	-635.9818115234375	637.2560424804688	116.1768035888672	-579.4786376953125	397.2422790527344	410.6404418945312	-641.8795166015625	449.8512268066406	56.01533126831055	-650.9972534179688	472.4204711914062	57.70868301391602	-585.5557861328125	565.6495361328125	81.43690490722656	-657.2189331054688	656.7869262695312	127.7925567626953	-498.2615051269531	
